<svg xmlns="http://www.w3.org/2000/svg" viewBox="0 0 32 32" width="32" height="32">
  <defs>
    <linearGradient id="chatGradient" x1="0%" y1="0%" x2="100%" y2="100%">
      <stop offset="0%" style="stop-color:#3b82f6;stop-opacity:1" />
      <stop offset="100%" style="stop-color:#1d4ed8;stop-opacity:1" />
    </linearGradient>
  </defs>
  
  <!-- Background circle -->
  <circle cx="16" cy="16" r="15" fill="url(#chatGradient)" stroke="#1e40af" stroke-width="1"/>
  
  <!-- Larger Chat bubble -->
  <path d="M5 10 C5 7.5, 7.5 5, 10 5 L22 5 C24.5 5, 27 7.5, 27 10 L27 20 C27 22.5, 24.5 25, 22 25 L12 25 L7 28 L7 23 L10 25 C7.5 25, 5 22.5, 5 20 Z" 
        fill="white" opacity="0.95"/>
  
  <!-- Branching signal lines (1 to 3) -->
  <!-- Main input line from left -->
  <line x1="8" y1="15" x2="13" y2="15" stroke="#1d4ed8" stroke-width="2.5" stroke-linecap="round"/>
  
  <!-- Branch point -->
  <circle cx="13" cy="15" r="1.5" fill="#1d4ed8"/>
  
  <!-- Three branching lines with more distance -->
  <!-- Top curved line -->
  <path d="M 13 15 Q 18 10, 23 9" stroke="#1d4ed8" stroke-width="2" fill="none" stroke-linecap="round"/>
  
  <!-- Middle straight line -->
  <line x1="13" y1="15" x2="23" y2="15" stroke="#1d4ed8" stroke-width="2" stroke-linecap="round"/>
  
  <!-- Bottom curved line -->
  <path d="M 13 15 Q 18 20, 23 21" stroke="#1d4ed8" stroke-width="2" fill="none" stroke-linecap="round"/>
  
  <!-- End points -->
  <circle cx="23" cy="9" r="1.2" fill="#1d4ed8"/>
  <circle cx="23" cy="15" r="1.2" fill="#1d4ed8"/>
  <circle cx="23" cy="21" r="1.2" fill="#1d4ed8"/>
</svg>
